<svg width="200" height="200" viewBox="100 100 200 200" fill="none" xmlns="http://www.w3.org/2000/svg">
<path opacity="0.48" d="M200 144C210.02 144 218.86 153.402 224.119 167.728C225.357 171.1 228.103 173.767 231.573 174.969C246.321 180.078 256 188.667 256 198.4C256 208.133 246.321 216.721 231.573 221.83C228.103 223.032 225.357 225.7 224.119 229.071C218.86 243.398 210.02 252.8 200 252.8C189.98 252.8 181.139 243.398 175.88 229.071C174.643 225.7 171.897 223.032 168.426 221.83C153.678 216.721 144 208.133 144 198.4C144 188.667 153.678 180.078 168.426 174.969C171.897 173.767 174.643 171.1 175.88 167.728C181.139 153.402 189.98 144 200 144Z" fill="white"/>
<path opacity="0.54" d="M197.961 138.462C208.976 138.077 219.066 148.377 225.414 164.388C226.907 168.156 230.032 171.069 233.894 172.296C250.309 177.512 261.289 186.859 261.673 197.874C262.058 208.889 251.757 218.979 235.746 225.327C231.978 226.821 229.065 229.945 227.838 233.808C222.623 250.222 213.275 261.202 202.261 261.586C191.246 261.971 181.155 251.671 174.807 235.659C173.314 231.892 170.189 228.978 166.327 227.751C149.912 222.536 138.933 213.189 138.548 202.174C138.164 191.159 148.464 181.068 164.475 174.721C168.243 173.227 171.156 170.103 172.383 166.24C177.598 149.825 186.946 138.846 197.961 138.462Z" fill="white"/>
<path opacity="0.56" d="M204.881 131.861C217.075 132.714 227.011 145.245 232.156 163.642C233.367 167.971 236.475 171.546 240.594 173.348C258.095 181.003 269.122 192.587 268.269 204.781C267.416 216.975 254.885 226.911 236.488 232.056C232.159 233.267 228.584 236.375 226.782 240.493C219.127 257.995 207.544 269.021 195.35 268.169C183.155 267.316 173.219 254.784 168.074 236.388C166.863 232.059 163.755 228.483 159.637 226.682C142.136 219.026 131.109 207.443 131.962 195.249C132.814 183.055 145.346 173.119 163.742 167.974C168.071 166.763 171.647 163.655 173.448 159.536C181.104 142.035 192.687 131.009 204.881 131.861Z" fill="white"/>
<path opacity="0.4" d="M194.524 123.803C208.118 122.852 221.03 135.144 229.564 154.653C231.572 159.244 235.558 162.709 240.384 164.059C260.891 169.795 274.861 180.871 275.811 194.464C276.762 208.058 264.47 220.97 244.96 229.504C240.369 231.512 236.904 235.498 235.555 240.324C229.819 260.831 218.743 274.801 205.15 275.752C191.556 276.702 178.643 264.41 170.109 244.9C168.101 240.309 164.115 236.844 159.29 235.495C138.782 229.759 124.813 218.683 123.862 205.09C122.912 191.496 135.204 178.584 154.713 170.05C159.304 168.041 162.769 164.055 164.119 159.23C169.855 138.722 180.931 124.753 194.524 123.803Z" fill="white"/>
<path opacity="0.3" d="M205.993 115.225C221.185 116.287 233.564 131.9 239.975 154.82C241.483 160.213 245.356 164.668 250.487 166.912C272.292 176.451 286.03 190.882 284.968 206.075C283.905 221.268 268.292 233.647 245.372 240.057C239.979 241.566 235.524 245.438 233.279 250.569C223.741 272.374 209.31 286.112 194.117 285.05C178.925 283.988 166.545 268.375 160.135 245.455C158.626 240.061 154.754 235.606 149.623 233.362C127.818 223.824 114.08 209.392 115.142 194.2C116.205 179.007 131.817 166.628 154.737 160.217C160.131 158.709 164.586 154.836 166.83 149.705C176.368 127.9 190.8 114.162 205.993 115.225Z" fill="white"/>
<path opacity="0.11" d="M190.067 105.248C207.007 103.468 223.674 118.26 235.186 142.259C237.895 147.907 243.025 152.062 249.113 153.537C274.982 159.808 292.916 173.035 294.697 189.975C296.477 206.916 281.685 223.582 257.685 235.094C252.037 237.803 247.883 242.934 246.407 249.021C240.136 274.89 226.91 292.825 209.969 294.605C193.029 296.386 176.362 281.593 164.85 257.593C162.141 251.946 157.01 247.791 150.923 246.315C125.054 240.045 107.12 226.818 105.34 209.878C103.559 192.938 118.351 176.271 142.351 164.758C147.999 162.049 152.153 156.919 153.629 150.831C159.9 124.963 173.127 107.029 190.067 105.248Z" fill="white"/>
<path d="M200 172.402C200 187.634 187.464 199.982 172 199.982C187.363 199.982 199.836 212.168 199.998 227.263L199.999 227.28C200 227.268 200 227.256 200 227.244C200 212.012 212.536 199.665 228 199.665C212.643 199.665 200.173 187.487 200.002 172.4L200 172.402Z" fill="black"/>
</svg>
